<?xml version="1.0" encoding="iso-8859-1"?>
<!-- Generator: Adobe Illustrator 19.0.0, SVG Export Plug-In . SVG Version: 6.00 Build 0)  -->
<svg version="1.1" id="Capa_1" xmlns="http://www.w3.org/2000/svg" xmlns:xlink="http://www.w3.org/1999/xlink" x="0px" y="0px"
	 viewBox="0 0 58.8 58.8" style="enable-background:new 0 0 58.8 58.8;" xml:space="preserve">
<g>
	<g>
		<path d="M54.3,24.6H12.1c-0.2,0-0.4,0-0.5,0.1l-7.6,4c-0.3,0.2-0.5,0.5-0.5,0.9s0.2,0.7,0.5,0.9l7.6,4c0.2,0.1,0.3,0.1,0.5,0.1
			h42.2c0.6,0,1-0.4,1-1v-8C55.3,25,54.9,24.6,54.3,24.6z M12.3,26.6h35v2h-31v2h31v2h-34v-4h-2v3.5l-4.7-2.5L12.3,26.6z M53.3,32.6
			h-4v-6h4V32.6z"/>
		<path d="M9.3,8.6c0-0.6,0.4-1,1-1h17c0.6,0,1,0.4,1,1v11h2v-11c0-1.7-1.3-3-3-3h-17c-1.7,0-3,1.3-3,3v11h2V8.6z"/>
		<path d="M49.3,51.6c0,0.6-0.4,1-1,1h-17c-0.6,0-1-0.4-1-1v-13h-2v13c0,1.7,1.3,3,3,3h17c1.7,0,3-1.3,3-3v-13h-2V51.6z"/>
		<path d="M9.3,49.1V36.6h-2v12.5c-2.2,0.5-3.8,2.4-3.8,4.8c0,2.7,2.2,4.9,4.9,4.9s4.9-2.2,4.9-4.9C13.3,51.5,11.6,49.5,9.3,49.1z
			 M8.4,56.8c-1.6,0-2.9-1.3-2.9-2.9c0-1.6,1.3-2.9,2.9-2.9c1.6,0,2.9,1.3,2.9,2.9S10,56.8,8.4,56.8z"/>
		<path d="M49.3,9.7v9.9h2V9.7c2.3-0.4,4-2.4,4-4.8c0-2.7-2.2-4.9-4.9-4.9s-4.9,2.2-4.9,4.9C45.5,7.2,47.1,9.2,49.3,9.7z M50.4,2
			c1.6,0,2.9,1.3,2.9,2.9S52,7.8,50.4,7.8c-1.6,0-2.9-1.3-2.9-2.9C47.5,3.3,48.8,2,50.4,2z"/>
	</g>
</g>
<g>
</g>
<g>
</g>
<g>
</g>
<g>
</g>
<g>
</g>
<g>
</g>
<g>
</g>
<g>
</g>
<g>
</g>
<g>
</g>
<g>
</g>
<g>
</g>
<g>
</g>
<g>
</g>
<g>
</g>
</svg>
